<svg xmlns="http://www.w3.org/2000/svg" viewBox="0 0 171 159" width="171" height="159">
	<style>
		tspan { white-space:pre }
		.shp0 { fill-opacity: 0.902;fill: #bc7d00 } 
	</style>
	<g id="section_1">
		<g id="scroll_2">
			<path id="twitter" class="shp0" d="M170 17.31L154.72 32.63C154.72 32.63 154.72 31.24 154.72 35.18C154.72 37.98 154.27 40.65 153.62 43.25C153.26 64.31 146.56 92.25 119.06 114.3C64.96 157.67 7 119.4 7 119.4C52.84 119.4 52.84 104.09 52.84 104.09C42.66 104.09 22.28 83.67 22.28 83.67C27.37 88.77 37.56 83.67 37.56 83.67C12.09 68.36 12.09 53.04 12.09 53.04C17.19 58.15 27.37 53.04 27.37 53.04C1.91 32.63 17.19 7.1 17.19 7.1C22.28 32.63 88.5 42.83 88.5 42.83L89.34 42.41C88.82 40.08 88.5 35.12 88.5 32.63C88.5 14.3 103.32 2 121.61 2C131.67 2 140.58 6.6 146.65 13.7L149.62 12.21L164.91 2L154.72 22.42L170 17.31Z" />
		</g>
	</g>
</svg>